<?xml version="1.0" encoding="UTF-8" standalone="no"?>
<svg xmlns="http://www.w3.org/2000/svg" viewBox="0 0 508 508" width="508" height="508">
    <!-- Calendar body -->
    <path style="fill:#090509" d="M 506.645,89.372 C 502.609,76.437 491.008,66.87 476.738,66.87 h -31.782 v 49.326 c 0,26.284 -21.39,47.674 -47.674,47.674 -26.284,0 -47.674,-21.39 -47.674,-47.674 V 66.87 H 158.753 v 49.326 c 0,26.284 -21.39,47.674 -47.674,47.674 -26.284,0 -47.674,-21.39 -47.674,-47.674 V 66.87 H 31.782 c -14.27,0 -25.903,9.567 -29.907,22.502 H 0 v 387.365 c 0,17.544 14.239,31.782 31.782,31.782 h 444.955 c 17.544,0 31.782,-14.239 31.782,-31.782 V 89.372 Z M 476.737,476.737 H 31.782 v -254.26 h 444.955 z" />
    <!-- Left ring -->
    <path style="fill:#090509" d="m 111.08,132.088 c 8.772,0 15.891,-7.119 15.891,-15.891 V 15.891 C 126.971,7.119 119.852,0 111.08,0 102.308,0 95.189,7.119 95.189,15.891 v 100.306 c 0,8.772 7.119,15.891 15.891,15.891 z" />
    <!-- Right ring -->
    <path style="fill:#090509" d="m 397.281,132.088 c 8.74,0 15.891,-7.119 15.891,-15.891 V 15.891 C 413.172,7.119 406.021,0 397.281,0 388.541,0 381.39,7.119 381.39,15.891 v 100.306 c 0,8.772 7.151,15.891 15.891,15.891 z" />
</svg>
